<?xml version="1.0" standalone="no"?><!DOCTYPE svg PUBLIC "-//W3C//DTD SVG 1.1//EN" "http://www.w3.org/Graphics/SVG/1.1/DTD/svg11.dtd"><svg t="1587212820315" class="icon" viewBox="0 0 1024 1024" version="1.1" xmlns="http://www.w3.org/2000/svg" p-id="10195" xmlns:xlink="http://www.w3.org/1999/xlink" width="200" height="200"><defs><style type="text/css"></style></defs><path d="M512 512m-460.8 0a460.8 460.8 0 1 0 921.6 0 460.8 460.8 0 1 0-921.6 0Z" fill="#FF99BB" p-id="10196"></path><path d="M443.392 249.344c-15.36 8.704-20.992 28.672-11.776 44.032 8.704 15.36 48.64 40.448 57.856 35.328 9.216-5.12 7.168-52.224-1.536-67.584-9.216-15.36-29.184-20.992-44.544-11.776zM564.224 265.216c-15.36-8.704-35.328-3.584-44.032 11.776-8.704 15.36-10.752 62.464-1.536 67.584s48.64-19.968 57.856-35.328c8.192-15.36 3.072-34.816-12.288-44.032z" fill="#FFFFFF" p-id="10197"></path><path d="M715.776 371.712c-56.32-56.32-147.456-56.32-203.776 0-56.32-56.32-147.456-56.32-203.776 0-56.32 56.32-56.32 147.456 0 203.776l203.776 203.776 203.776-203.776c56.32-56.32 56.32-147.456 0-203.776z" fill="#FFFFFF" p-id="10198"></path></svg>