<?xml version="1.0" standalone="no"?><!DOCTYPE svg PUBLIC "-//W3C//DTD SVG 1.1//EN" "http://www.w3.org/Graphics/SVG/1.1/DTD/svg11.dtd"><svg t="1588387883467" class="icon" viewBox="0 0 1024 1024" version="1.1" xmlns="http://www.w3.org/2000/svg" p-id="11208" xmlns:xlink="http://www.w3.org/1999/xlink" width="200" height="200"><defs><style type="text/css"></style></defs><path d="M0 0h1024v1024H0z" fill="#FFFFFF" opacity=".01" p-id="11209"></path><path d="M153.6 460.8h716.8a25.6 25.6 0 0 1 0 51.2H153.6a25.6 25.6 0 0 1 0-51.2z m0-230.4h716.8a25.6 25.6 0 0 1 0 51.2H153.6a25.6 25.6 0 1 1 0-51.2z m0 460.8h716.8a25.6 25.6 0 0 1 0 51.2H153.6a25.6 25.6 0 0 1 0-51.2z" fill="#6C7680" p-id="11210"></path></svg>