<?xml version="1.0" standalone="no"?><!DOCTYPE svg PUBLIC "-//W3C//DTD SVG 1.1//EN" "http://www.w3.org/Graphics/SVG/1.1/DTD/svg11.dtd"><svg t="1588008044842" class="icon" viewBox="0 0 1024 1024" version="1.1" xmlns="http://www.w3.org/2000/svg" p-id="2795" xmlns:xlink="http://www.w3.org/1999/xlink" width="200" height="200"><defs><style type="text/css"></style></defs><path d="M512 512m-512 0a512 512 0 1 0 1024 0 512 512 0 1 0-1024 0Z" fill="#FDEBED" p-id="2796"></path><path d="M716.8 576c-35.84 0-64-28.16-64-64s28.16-64 64-64 64 28.16 64 64-28.16 64-64 64z m-204.8 0c-35.84 0-64-28.16-64-64s28.16-64 64-64 64 28.16 64 64-28.16 64-64 64z m-204.8 0c-35.84 0-64-28.16-64-64s28.16-64 64-64 64 28.16 64 64-28.16 64-64 64z" fill="#EC3A4E" p-id="2797"></path></svg>