<?xml version="1.0" standalone="no"?><!DOCTYPE svg PUBLIC "-//W3C//DTD SVG 1.1//EN" "http://www.w3.org/Graphics/SVG/1.1/DTD/svg11.dtd"><svg t="1588131320795" class="icon" viewBox="0 0 1024 1024" version="1.1" xmlns="http://www.w3.org/2000/svg" p-id="7566" xmlns:xlink="http://www.w3.org/1999/xlink" width="200" height="200"><defs><style type="text/css"></style></defs><path d="M616.57567833 182.36567873l76.44334796 154.80146187c8.69009158 6.03887719 34.7603663-3.97682157 52.14054948-1.47289689l159.07286282 33.43475913c43.59774757 6.33345658 60.68335138 82.04035611 29.16335818 112.82390084l-123.57604806 120.48296462c-12.51962347 12.22504409-18.26392129 29.75251694-15.31812752 47.13270009l29.16335817 170.11958941c7.51177407 43.45045791-29.60522723 127.70015932-68.6369945 107.22689271l-152.15024749-67.7532564c-15.46541722-8.10093283-63.03998638-50.37307323-78.5054036-42.27214038l-132.85529838 58.76858542c-39.03176725 20.47326659-84.5442808-12.66691315-77.1797964-56.11737104l29.16335818-170.11958939c2.94579374-17.23289347-2.79850407-34.907656-15.31812754-47.13270011l-123.57604805-120.4829646c-31.51999319-30.78354474-14.13981003-84.39699111 29.45793756-90.73044768l170.85603783-24.89195724c17.38018317-2.50392469 32.25644163-13.40336159 40.06279508-29.16335819l76.44334797-154.80146188c19.2949491-39.32634663 75.70689953-39.32634663 95.14913831 0.14728971z" fill="#ffb7a4" p-id="7567"></path><path d="M271.77051921 961.96999619c-18.70579035 0-37.26429101-5.89158752-53.02428759-17.38018314-27.98504069-20.32597692-41.83027133-54.2026051-35.93868383-88.37381268L217.42062443 654.1345487c2.06205563-11.63588534-1.91476594-23.56635005-10.31027816-31.81457256l-146.84781873-143.16557653c-24.89195725-24.15550879-33.58204881-59.65232355-22.8299016-92.64521362 10.75214722-32.99289006 38.73718787-56.55924012 72.90839545-61.56708949L313.15892148 295.48415895c11.63588534-1.76747625 21.79887379-8.98467097 26.95401287-19.58952849l90.73044769-183.81753036c15.31812754-31.07812413 46.39625165-50.37307323 81.00932826-50.37307323s65.69120075 19.2949491 81.00932829 50.37307323l90.73044768 183.81753036c5.30242877 10.60485751 15.31812754 17.96934191 26.95401288 19.58952849l202.81790009 29.45793755c34.31849726 5.0078494 62.30353794 28.57419943 72.90839546 61.56708949s1.91476594 68.48970482-22.82990161 92.64521362l-146.84781873 143.16557653c-8.3955122 8.24822251-12.37233377 20.17868721-10.31027815 31.81457256l34.61307663 202.08145167c5.89158752 34.17120756-7.95364315 68.04783577-35.93868383 88.37381268-27.98504069 20.32597692-64.51288325 22.97719129-95.14913831 6.92261532l-181.46089535-95.44371768c-10.45756784-5.44971845-22.97719129-5.44971845-33.43475914 0l-181.46089536 95.44371768c-12.81420285 7.06990501-27.24859225 10.45756784-41.68298164 10.45756782z m240.37677049-164.52258126c14.4343894 0 28.86877882 3.5349525 42.12485069 10.45756783l181.46089538 95.4437177c12.37233377 6.48074626 26.51214381 5.44971845 37.85344974-2.79850407 11.34130596-8.24822251 16.64373472-21.35700474 14.28709972-35.05494569l-34.61307662-202.08145166c-5.0078494-29.31064787 4.71327001-59.2104545 25.92298504-79.97830047l146.84781873-143.16557653c10.01569877-9.72111939 13.40336159-23.56635005 9.13196064-36.82242193-4.27140094-13.2560719-15.17083783-22.38803254-29.01606849-24.45008817l-202.81790009-29.45793757c-29.45793756-4.27140094-54.93905355-22.8299016-68.04783576-49.4893351l-90.73044767-183.81753036c-6.1861669-12.51962347-18.26392129-20.03139755-32.25644164-20.03139755-13.99252034 0-26.07027474 7.51177407-32.25644163 20.03139755l-90.73044768 183.81753036c-13.10878221 26.65943349-38.58989821 45.21793415-68.04783575 49.4893351l-202.81790008 29.45793757c-13.84523065 2.06205563-24.59737787 11.19401627-29.01606851 24.45008817-4.27140094 13.2560719-0.88373813 27.10130255 9.13196066 36.82242193l146.84781871 143.16557653c21.35700474 20.76784598 31.07812413 50.66765259 25.92298505 79.97830047L236.56828382 865.4952507c-2.35663501 13.69794096 2.94579374 26.95401286 14.28709973 35.05494569 11.34130596 8.24822251 25.48111599 9.27925033 37.85344976 2.79850407l181.46089536-95.4437177c13.10878221-6.92261532 27.54317163-10.45756784 41.97756103-10.45756783z" fill="#3e3a48" p-id="7568"></path></svg>