<?xml version="1.0" standalone="no"?><!DOCTYPE svg PUBLIC "-//W3C//DTD SVG 1.1//EN" "http://www.w3.org/Graphics/SVG/1.1/DTD/svg11.dtd"><svg t="1588131242588" class="icon" viewBox="0 0 1024 1024" version="1.1" xmlns="http://www.w3.org/2000/svg" p-id="3920" xmlns:xlink="http://www.w3.org/1999/xlink" width="200" height="200"><defs><style type="text/css"></style></defs><path d="M893.3 450.9c20.8 0 37.7 16.9 37.7 37.7v113.2c0 20.8-16.9 37.7-37.7 37.7h-18.9V450.9h18.9m0-37.7h-56.6v264.1h56.6c41.7 0 75.5-33.8 75.5-75.5V488.6c0-41.6-33.8-75.4-75.5-75.4zM591.5 903.6v2.7c0 8.9-7.3 16.2-16.2 16.2h-80.8c-8.9 0-16.2-7.3-16.2-16.2v-2.7h113.2m37.7-37.7H440.6v40.4c0 29.8 24.1 53.9 53.9 53.9h80.8c29.8 0 53.9-24.1 53.9-53.9v-40.4zM157.6 450.9v188.6h-18.9c-20.8 0-37.7-16.9-37.7-37.7V488.6c0-20.8 16.9-37.7 37.7-37.7h18.9m37.8-37.7h-56.6c-41.7 0-75.5 33.8-75.5 75.5v113.2c0 41.7 33.8 75.5 75.5 75.5h56.6V413.2zM512 647c-1.6 0-3.1 0-4.7-0.1-46.1-2.3-73.2-37.9-74.3-39.4-3.1-4.2-2.3-10.1 1.9-13.2 4.2-3.1 10.1-2.3 13.2 1.9 0.2 0.3 23.2 30.1 60.4 31.9 30.8 1.5 62.4-15.9 94.9-51.4 3.5-3.8 9.5-4.1 13.3-0.6 3.8 3.5 4.1 9.5 0.6 13.3-35 38.2-70.4 57.6-105.3 57.6z" fill="#FF7878" p-id="3921"></path><path d="M191.8 450.8l-37.7-2.1C166.7 222.3 315.6 64.2 516.3 64.2c197.6 0 346 155.5 361 378l-37.6 2.5C825.9 239.6 696 101.9 516.4 101.9c-179.8 0-313.2 143.5-324.6 348.9zM596.1 915.6l-9.3-36.6c149.5-37.8 249.9-156.8 249.9-296h37.7c0 156.7-111.8 290.4-278.3 332.6z" fill="#FF7878" p-id="3922"></path><path d="M516 263.6c137.7 0 207.5 82.1 207.5 243.9 0 124.1-93.1 225-207.5 225s-207.5-100.9-207.5-225c0.1-161.8 69.9-243.9 207.5-243.9m0-37.7c-189.2 0-245.2 136.5-245.2 281.6 0 145.1 109.8 262.7 245.2 262.7 135.4 0 245.2-117.6 245.2-262.7 0.1-145.1-56-281.6-245.2-281.6z" fill="#FF7878" p-id="3923"></path></svg>