<?xml version="1.0" standalone="no"?><!DOCTYPE svg PUBLIC "-//W3C//DTD SVG 1.1//EN" "http://www.w3.org/Graphics/SVG/1.1/DTD/svg11.dtd"><svg t="1588131284266" class="icon" viewBox="0 0 1024 1024" version="1.1" xmlns="http://www.w3.org/2000/svg" p-id="5463" xmlns:xlink="http://www.w3.org/1999/xlink" width="200" height="200"><defs><style type="text/css"></style></defs><path d="M564.3125 953.41666667H454.25c-41.34375 0-75-33.65625-75-75V732.82291667c0-35.90625 29.15625-65.0625 65.0625-65.0625h129.75c35.90625 0 65.0625 29.15625 65.0625 65.0625v145.59375c0.1875 41.25-33.46875 75-74.8125 75z m-119.625-65.4375h129.28125V732.91666667H444.6875v155.0625z m18.75-18.75M965.84375 349.19791667l-0.375-0.75-0.28125-0.84375c-0.5625-1.875-1.125-3.46875-1.6875-4.96875l-81.65625-211.5c-9.1875-23.71875-32.4375-39.65625-57.84375-39.65625H200.75c-25.5 0-48.75 15.9375-57.84375 39.65625L61.25 342.63541667c-1.5 4.21875-2.53125 7.5-3 10.5l-0.1875 1.3125-0.5625 1.21875c-10.03125 23.15625-14.8125 48.09375-14.25 74.25 1.125 45.75 19.78125 88.6875 52.59375 121.03125 32.71875 32.4375 75.9375 50.625 121.6875 51.1875h2.4375c59.90625 0 114.375-30.375 146.625-78 32.25 47.71875 86.71875 78 146.53125 78 53.90625 0 104.0625-24.09375 137.8125-66l8.8125-10.875 8.8125 10.875c33.46875 41.4375 82.96875 65.4375 136.03125 66h1.875c46.59375 0 90.65625-18.09375 123.9375-51 33.84375-33.375 52.59375-77.71875 52.875-124.78125-0.09375-26.71875-6-53.34375-17.4375-77.15625z m-78.9375 157.96875c-21.84375 21.46875-50.4375 33.28125-80.71875 33.28125h-1.03125c-48.375-0.28125-91.59375-31.21875-107.53125-76.96875-4.21875-12.09375-15.1875-20.15625-28.125-20.53125l-17.4375-0.5625c-13.6875-0.46875-25.78125 7.875-30.1875 20.71875-16.03125 46.40625-59.71875 77.53125-108.84375 77.53125-51.65625 0-97.3125-34.78125-111-84.65625-2.15625-7.96875-7.3125-14.53125-14.4375-18.65625-6.375-3.65625-13.6875-4.875-20.8125-3.5625-7.3125-1.40625-14.8125-0.28125-21.375 3.46875-7.125 4.125-12.28125 10.6875-14.34375 18.5625-13.5 50.15625-59.15625 84.84375-111.1875 84.84375h-1.5c-61.125-0.84375-112.03125-51.1875-113.53125-112.21875-0.375-18.375 3.375-35.90625 10.96875-52.125l2.53125-5.4375 0.46875-5.90625 81.75-211.875h624l81.75 211.78125 0.1875 0.84375c0.5625 2.625 1.40625 5.0625 2.625 7.21875 8.53125 16.875 12.75 34.6875 12.5625 53.15625-0.46875 30.5625-12.65625 59.4375-34.78125 81.09375z" fill="#fc7e81" p-id="5464"></path><path d="M840.5 843.875c0 35.4375-28.875 64.5-64.5 64.5H243.78125c-35.4375 0-64.5-28.875-64.5-64.5V615.96875c-22.78125-5.90625-44.15625-16.5-63-31.03125V824.1875c0 81.9375 66.5625 148.6875 148.6875 148.6875h488.34375c82.125 0 148.6875-66.75 148.875-148.875V595.625c-18.9375 11.625-39.75 19.5-61.6875 23.34375V843.875z" fill="#fc7e81" p-id="5465"></path></svg>