<?xml version="1.0" standalone="no"?><!DOCTYPE svg PUBLIC "-//W3C//DTD SVG 1.1//EN" "http://www.w3.org/Graphics/SVG/1.1/DTD/svg11.dtd"><svg t="1588229214132" class="icon" viewBox="0 0 1024 1024" version="1.1" xmlns="http://www.w3.org/2000/svg" p-id="4660" xmlns:xlink="http://www.w3.org/1999/xlink" width="200" height="200"><defs><style type="text/css"></style></defs><path d="M512 512m-512 0a512 512 0 1 0 1024 0 512 512 0 1 0-1024 0Z" fill="#CCCCCC" p-id="4661"></path><path d="M285.48423 473.165592m33.941125 33.941126l158.391919 158.391919q33.941125 33.941125 0 67.882251l0 0q-33.941125 33.941125-67.882251 0l-158.391919-158.391919q-33.941125-33.941125 0-67.882251l0 0q33.941125-33.941125 67.882251 0Z" fill="#FFFFFF" p-id="4662"></path><path d="M853.025103 359.078156m-33.941126 33.941125l-339.411255 339.411255q-33.941125 33.941125-67.882251 0l0 0q-33.941125-33.941125 0-67.882251l339.411255-339.411255q33.941125-33.941125 67.882251 0l0 0q33.941125 33.941125 0 67.882251Z" fill="#FFFFFF" p-id="4663"></path></svg>